name Walk3.mot
datacolumns 19
datarows 30
range 3.67000000 3.81500000
endheader

                time	   L_ground_force_vx	   L_ground_force_vy	   L_ground_force_vz	   L_ground_force_px	   L_ground_force_py	   L_ground_force_pz	   R_ground_force_vx	   R_ground_force_vy	   R_ground_force_vz	   R_ground_force_px	   R_ground_force_py	   R_ground_force_pz	   L_ground_torque_x	   L_ground_torque_y	   L_ground_torque_z	   R_ground_torque_x	   R_ground_torque_y	   R_ground_torque_z	
          3.67000000	         -6.79992828	        128.07155813	         -5.85825228	         -0.06054555	          0.00000000	         -0.01058667	         -0.00000000	          0.00000000	          0.00000000	          0.00000000	          0.00000000	          0.00000000	          0.00000000	          0.28771364	          0.00000000	          0.00000000	          0.00000000	          0.00000000	
          3.67500000	        -12.17832903	        180.97579461	         -8.21346882	         -0.13508923	          0.00000000	         -0.02416297	         -0.00000000	          0.00000000	          0.00000000	          0.00000000	          0.00000000	          0.00000000	          0.00000000	          0.40889568	          0.00000000	          0.00000000	          0.00000000	          0.00000000	
          3.68000000	        -19.30242330	        238.32500446	        -10.10676767	         -0.20041302	          0.00000000	         -0.03616717	         -0.00000000	          0.00000000	          0.00000000	          0.00000000	          0.00000000	          0.00000000	          0.00000000	          0.54279269	          0.00000000	          0.00000000	          0.00000000	          0.00000000	
          3.68500000	        -28.12781054	        297.19135601	        -11.34427630	         -0.25442837	          0.00000000	         -0.04624406	         -0.00000000	          0.00000000	          0.00000000	          0.00000000	          0.00000000	          0.00000000	          0.00000000	          0.68221207	          0.00000000	          0.00000000	          0.00000000	          0.00000000	
          3.69000000	        -38.28703403	        354.74423413	        -11.78924018	         -0.29669667	          0.00000000	         -0.05432507	         -0.00000000	          0.00000000	         -0.00000000	         -0.00000000	          0.00000000	         -0.00000000	          0.00000000	          0.81859017	          0.00000000	          0.00000000	          0.00000000	          0.00000000	
          3.69500000	        -49.14656332	        408.97165490	        -11.33863101	         -0.32787033	          0.00000000	         -0.06052822	         -0.00000000	          0.00000000	         -0.00000000	         -0.00000000	          0.00000000	         -0.00000000	          0.00000000	          0.94426107	          0.00000000	          0.00000000	          0.00000000	          0.00000000	
          3.70000000	        -60.03050588	        458.76591285	         -9.93574445	         -0.34924454	          0.00000000	         -0.06508070	         -0.00000000	         -0.00000000	         -0.00000000	         -0.00000000	          0.00000000	         -0.00000000	          0.00000000	          1.05443430	          0.00000000	          0.00000000	          0.00000000	          0.00000000	
          3.70500000	        -70.44398092	        503.78606416	         -7.60601502	         -0.36242133	          0.00000000	         -0.06825606	         -0.00000000	         -0.00000001	         -0.00000000	         -0.00000000	          0.00000000	         -0.00000000	          0.00000000	          1.14786182	          0.00000000	          0.00000000	          0.00000000	          0.00000000	
          3.71000000	        -80.17280211	        544.20030531	         -4.46626905	         -0.36907444	          0.00000000	         -0.07033025	          0.00000000	         -0.00000001	         -0.00000000	         -0.00000000	          0.00000000	         -0.00000000	          0.00000000	          1.22717685	          0.00000000	          0.00000000	         -0.00000000	          0.00000000	
          3.71500000	        -89.20517529	        580.38338340	         -0.71042447	         -0.37080061	          0.00000000	         -0.07155632	          0.00000000	         -0.00000002	         -0.00000000	         -0.00000000	          0.00000000	         -0.00000000	          0.00000000	          1.29806659	          0.00000000	          0.00000000	         -0.00000000	          0.00000000	
          3.72000000	        -97.56237220	        612.78344668	          3.42046426	         -0.36902883	          0.00000000	         -0.07215439	          0.00000000	         -0.00000003	         -0.00000000	         -0.00000000	          0.00000000	         -0.00000000	          0.00000000	          1.36784122	          0.00000000	          0.00000000	         -0.00000000	          0.00000000	
          3.72500000	       -105.20559010	        641.93447991	          7.70245269	         -0.36497049	          0.00000000	         -0.07230718	          0.00000000	         -0.00000004	         -0.00000000	         -0.00000000	          0.00000000	         -0.00000000	          0.00000000	          1.44384454	          0.00000000	          0.00000000	         -0.00000000	          0.00000000	
          3.73000000	       -112.06005054	        668.42112304	         11.97297270	         -0.35960297	          0.00000000	         -0.07216158	          0.00000000	         -0.00000005	         -0.00000000	         -0.00000000	          0.00000000	         -0.00000000	          0.00000000	          1.53244656	          0.00000000	          0.00000000	         -0.00000000	          0.00000000	
          3.73500000	       -118.05890393	        692.76629817	         16.12900950	         -0.35367574	          0.00000000	         -0.07183388	          0.00000001	         -0.00000006	         -0.00000000	         -0.00000000	          0.00000000	         -0.00000000	          0.00000000	          1.63789002	          0.00000000	          0.00000000	         -0.00000000	          0.00000000	
          3.74000000	       -123.14760302	        715.34667294	         20.12042220	         -0.34773286	          0.00000000	         -0.07141484	          0.00000001	         -0.00000007	         -0.00000000	         -0.00000000	          0.00000000	         -0.00000000	          0.00000000	          1.76091765	          0.00000000	          0.00000000	         -0.00000000	          0.00000000	
          3.74500000	       -127.27650980	        736.39756426	         23.94388620	         -0.34214394	          0.00000000	         -0.07097268	          0.00000001	         -0.00000008	         -0.00000000	         -0.00000000	          0.00000000	         -0.00000000	          0.00000000	          1.89934368	          0.00000000	          0.00000000	         -0.00000000	          0.00000000	
          3.75000000	       -130.41001813	        756.06160328	         27.62350019	         -0.33713484	          0.00000000	         -0.07055631	          0.00000001	         -0.00000009	         -0.00000000	         -0.00000000	          0.00000000	         -0.00000000	          0.00000000	          2.05048541	          0.00000000	          0.00000000	         -0.00000000	          0.00000000	
          3.75500000	       -132.54203334	        774.42549319	         31.19274163	         -0.33281817	          0.00000000	         -0.07019768	          0.00000001	         -0.00000008	         -0.00000000	         -0.00000000	          0.00000000	         -0.00000000	          0.00000000	          2.21189570	          0.00000000	          0.00000000	         -0.00000000	          0.00000000	
          3.76000000	       -133.70219534	        791.54131987	         34.68640106	         -0.32922335	          0.00000000	         -0.06991527	          0.00000001	         -0.00000006	          0.00000000	          0.00000000	          0.00000000	          0.00000000	          0.00000000	          2.38119328	          0.00000000	          0.00000000	         -0.00000000	          0.00000000	
          3.76500000	       -133.95030940	        807.44673823	         38.13828004	         -0.32632271	          0.00000000	         -0.06971704	          0.00000001	         -0.00000003	          0.00000001	          0.00000000	          0.00000000	          0.00000000	          0.00000000	          2.55557503	          0.00000000	          0.00000000	         -0.00000000	          0.00000000	
          3.77000000	       -133.36667112	        822.18014631	         41.57861959	         -0.32405163	          0.00000000	         -0.06960266	          0.00000001	          0.00000004	          0.00000001	          0.00000000	          0.00000000	          0.00000000	          0.00000000	          2.73176033	          0.00000000	          0.00000000	         -0.00000000	          0.00000000	
          3.77500000	       -132.04101402	        835.78093923	         45.02885071	         -0.32232357	          0.00000000	         -0.06956615	          0.00000000	          0.00000013	          0.00000002	          0.00000000	          0.00000000	          0.00000000	          0.00000000	          2.90608814	          0.00000000	          0.00000000	         -0.00000000	          0.00000000	
          3.78000000	       -130.06506960	        848.28202609	         48.49563311	         -0.32104318	          0.00000000	         -0.06959872	         -0.00000000	          0.00000025	          0.00000003	          0.00000000	          0.00000000	          0.00000000	          0.00000000	          3.07519901	          0.00000000	          0.00000000	          0.00000000	          0.00000000	
          3.78500000	       -127.52900955	        859.70586033	         51.96613554	         -0.32011640	          0.00000000	         -0.06969018	         -0.00000002	          0.00000042	          0.00000004	          0.00000000	          0.00000000	          0.00000000	          0.00000000	          3.23598134	          0.00000000	          0.00000000	          0.00000000	          0.00000000	
          3.79000000	       -124.51864200	        870.06743931	         55.40721136	         -0.31945741	          0.00000000	         -0.06982906	         -0.00000003	          0.00000062	          0.00000005	          0.00000000	          0.00000000	          0.00000000	          0.00000000	          3.38561568	          0.00000000	          0.00000000	          0.00000001	          0.00000000	
          3.79500000	       -121.10936597	        879.37927819	         58.76845489	         -0.31899188	          0.00000000	         -0.07000419	         -0.00000006	          0.00000087	          0.00000007	          0.00000000	          0.00000000	          0.00000000	          0.00000000	          3.52161285	          0.00000000	          0.00000000	          0.00000001	          0.00000000	
          3.80000000	       -117.36398054	        887.65843881	         61.98643044	         -0.31865863	          0.00000000	         -0.07020411	         -0.00000009	          0.00000114	          0.00000008	          0.00000000	          0.00000000	          0.00000000	          0.00000000	          3.64181115	          0.00000000	          0.00000000	          0.00000002	          0.00000000	
          3.80500000	       -113.33380022	        894.93879236	         64.98778537	         -0.31841077	          0.00000000	         -0.07041697	         -0.00000012	          0.00000143	          0.00000009	          0.00000000	          0.00000000	          0.00000000	          0.00000000	          3.74413342	          0.00000000	          0.00000000	          0.00000002	          0.00000000	
          3.81000000	       -109.06399914	        901.27864760	         67.69413778	         -0.31821464	          0.00000000	         -0.07063058	         -0.00000016	          0.00000170	          0.00000010	          0.00000000	          0.00000000	          0.00000000	          0.00000000	          3.82691535	          0.00000000	          0.00000000	          0.00000003	          0.00000000	
          3.81500000	       -104.59988143	        906.75707863	         70.02982129	         -0.31804671	          0.00000000	         -0.07083325	         -0.00000020	          0.00000191	          0.00000010	          0.00000000	          0.00000000	          0.00000000	          0.00000000	          3.88885929	          0.00000000	          0.00000000	          0.00000004	          0.00000000	
